<svg width="20" height="20" viewBox="0 0 20 20" fill="none" xmlns="http://www.w3.org/2000/svg">
<path d="M1.32766 10.8621C0.986164 8.48872 0.815416 7.30206 1.30183 6.28745C1.78824 5.27284 2.82357 4.65611 4.89422 3.42263L6.14057 2.68018C8.02093 1.56006 8.96113 1 10 1C11.0389 1 11.9791 1.56006 13.8594 2.68018L15.1058 3.42263C17.1764 4.65611 18.2118 5.27284 18.6981 6.28745C19.1846 7.30206 19.0139 8.48872 18.6723 10.8621L18.4215 12.6057C17.9827 15.6544 17.7634 17.1788 16.7059 18.0894C15.6483 19 14.0973 19 10.9955 19H9.00451C5.90263 19 4.35168 19 3.29412 18.0894C2.23656 17.1788 2.01722 15.6544 1.57855 12.6057L1.32766 10.8621Z" fill="white"/>
<path d="M1.32766 10.8621C0.986164 8.48872 0.815416 7.30206 1.30183 6.28745C1.78824 5.27284 2.82357 4.65611 4.89422 3.42263L6.14057 2.68018C8.02093 1.56006 8.96113 1 10 1C11.0389 1 11.9791 1.56006 13.8594 2.68018L15.1058 3.42263C17.1764 4.65611 18.2118 5.27284 18.6981 6.28745C19.1846 7.30206 19.0139 8.48872 18.6723 10.8621L18.4215 12.6057C17.9827 15.6544 17.7634 17.1788 16.7059 18.0894C15.6483 19 14.0973 19 10.9955 19H9.00451C5.90263 19 4.35168 19 3.29412 18.0894C2.23656 17.1788 2.01722 15.6544 1.57855 12.6057L1.32766 10.8621Z" stroke="black" stroke-width="1.5"/>
<path d="M1.32766 10.8621C0.986164 8.48872 0.815416 7.30206 1.30183 6.28745C1.78824 5.27284 2.82357 4.65611 4.89422 3.42263L6.14057 2.68018C8.02093 1.56006 8.96113 1 10 1C11.0389 1 11.9791 1.56006 13.8594 2.68018L15.1058 3.42263C17.1764 4.65611 18.2118 5.27284 18.6981 6.28745C19.1846 7.30206 19.0139 8.48872 18.6723 10.8621L18.4215 12.6057C17.9827 15.6544 17.7634 17.1788 16.7059 18.0894C15.6483 19 14.0973 19 10.9955 19H9.00451C5.90263 19 4.35168 19 3.29412 18.0894C2.23656 17.1788 2.01722 15.6544 1.57855 12.6057L1.32766 10.8621Z" stroke="white" stroke-opacity="0.2" stroke-width="1.5"/>
<path d="M10 12.7002V15.4002V12.7002Z" fill="white"/>
<path d="M10 12.7002V15.4002" stroke="white" stroke-width="1.5" stroke-linecap="round"/>
<path d="M10 12.7002V15.4002" stroke="black" stroke-width="1.5" stroke-linecap="round"/>
</svg>